#!OML:ASF F:\VICON\USERDATA\INSTALL\rory3\rory3.ASF
:FULLY-SPECIFIED
:DEGREES
652
root 0.682296 14.9026 -13.0741 -162.76 -4.65417 -175.268
lowerback 1.48354 2.50984 6.77033
upperback -2.17736 3.46078 -2.55852
thorax -2.53374 1.55192 -6.58056
lowerneck -25.2411 0.694 -3.08135
upperneck 29.4391 1.08838 1.24353
head 14.3061 0.00427703 1.16666
rclavicle -3.69739e-014 -2.06736e-014
rhumerus -88.9003 -74.2172 54.8031
rradius 11.1819
rwrist 89.4376
rhand -2.88294 -0.428553
rfingers 7.12502
rthumb 22.8263 -29.0978
lclavicle -3.69739e-014 -2.06736e-014
lhumerus -61.0328 -21.2358 61.1836
lradius 13.6478
lwrist -55.7305
lhand 2.22733 26.3903
lfingers 7.12502
lthumb 27.722 54.3667
rfemur -28.9076 7.76537 387.614
rtibia 58.883
rfoot -43.0423 -26.1604
rtoes -10.2657
lfemur -70.2063 -1.61853 -16.4015
ltibia 81.855
lfoot -27.6864 23.1643
ltoes -5.17778
653
root 0.646508 14.9675 -13.3334 -162.36 -3.97292 -175.708
lowerback 1.13079 3.06467 5.7699
upperback -2.73452 4.12247 -2.97118
thorax -2.84145 1.85993 -6.45685
lowerneck -24.8856 0.546997 -3.20317
upperneck 30.1606 0.751965 1.39357
head 14.5568 -0.178912 1.18004
rclavicle -3.37934e-015 4.6118e-014
rhumerus -96.0682 -74.5416 63.2107
rradius 11.3668
rwrist 92.0446
rhand -3.49914 -0.440099
rfingers 7.12502
rthumb 22.2349 -29.1811
lclavicle -3.37934e-015 4.6118e-014
lhumerus -63.1526 -20.0009 60.2551
lradius 13.215
lwrist -58.213
lhand 3.10642 25.8564
lfingers 7.12502
lthumb 28.5622 53.6946
rfemur -27.0993 8.86647 387.006
rtibia 56.6788
rfoot -42.9541 -26.4045
rtoes -9.08413
lfemur -71.2792 -1.1328 -16.9969
ltibia 79.0864
lfoot -26.8164 21.2441
ltoes -6.18429
654
root 0.60284 15.04 -13.6093 -161.824 -3.42016 -175.319
lowerback -0.0435894 3.66282 5.53602
upperback -3.03611 4.835 -3.10854
thorax -2.39074 2.22025 -6.40185
lowerneck -25.0597 0.259031 -3.63161
upperneck 31.0359 0.252102 1.85915
head 15.0022 -0.417805 1.35093
rclavicle -1.98785e-016 1.43125e-014
rhumerus -100.915 -74.8882 69.1474
rradius 11.608
rwrist 93.8178
rhand -4.19206 -0.147276
rfingers 7.12502
rthumb 21.5695 -28.9661
lclavicle -1.98785e-016 1.43125e-014
lhumerus -64.9016 -18.6328 59.2503
lradius 12.8224
lwrist -60.3477
lhand 3.20143 27.0289
lfingers 7.12502
lthumb 28.653 54.8518
rfemur -25.165 9.85282 387.268
rtibia 54.0552
rfoot -42.5269 -26.7551
rtoes -8.83683
lfemur -72.4571 -0.387936 -16.656
ltibia 76.1293
lfoot -26.0222 19.0228
ltoes -7.843
655
root 0.5154 15.112 -13.8724 -161.17 -3.48012 -174.631
lowerback -1.73634 4.10646 6.39929
upperback -3.04545 5.32894 -3.2526
thorax -1.28999 2.48715 -6.9001
lowerneck -25.6896 -0.0293662 -4.10308
upperneck 31.8942 -0.234501 2.45594
head 15.559 -0.622838 1.59551
rclavicle -1.13307e-014 -2.38542e-015
rhumerus -97.0822 -75.5804 66.003
rradius 11.8643
rwrist 93.1975
rhand -4.48969 -0.135555
rfingers 7.12502
rthumb 21.2837 -28.9869
lclavicle -1.13307e-014 -2.38542e-015
lhumerus -66.1473 -17.0918 58.0613
lradius 12.3853
lwrist -62.3358
lhand 3.6351 28.0661
lfingers 7.12502
lthumb 29.0673 55.8183
rfemur -23.3838 9.6301 387.724
rtibia 51.3939
rfoot -41.9609 -26.3526
rtoes -8.67533
lfemur -73.8183 -0.109923 -16.1287
ltibia 72.8244
lfoot -23.7274 17.9083
ltoes -12.0398
656
root 0.43958 15.1807 -14.1477 -160.771 -3.00234 -174.376
lowerback -3.01298 4.71096 6.56366
upperback -3.10813 6.04077 -3.61034
thorax -0.469775 2.86327 -7.23116
lowerneck -25.1313 -0.237836 -3.57595
upperneck 31.6112 -0.665223 2.10349
head 15.3192 -0.785283 1.26287
rclavicle -7.45443e-014 2.38542e-015
rhumerus -96.3417 -75.7924 66.0803
rradius 12.0535
rwrist 93.6998
rhand -4.93036 0.10201
rfingers 7.12502
rthumb 20.8603 -28.7965
lclavicle -7.45443e-014 2.38542e-015
lhumerus -67.3967 -15.9298 56.5966
lradius 11.9574
lwrist -64.0691
lhand 3.84166 29.4479
lfingers 7.12502
lthumb 29.2645 57.1659
rfemur -21.3464 9.91821 387.673
rtibia 48.728
rfoot -41.7144 -25.6342
rtoes -7.75868
lfemur -74.5386 0.479505 -16.1051
ltibia 69.3713
lfoot -21.5725 16.574
ltoes -13.8837
657
root 0.376063 15.2687 -14.434 -160.446 -2.44798 -173.978
lowerback -3.30806 5.40296 6.49224
upperback -3.97145 6.8973 -3.93608
thorax -1.02441 3.21546 -7.50128
lowerneck -25.2662 -0.499755 -4.07552
upperneck 33.2581 -1.49554 3.14531
head 16.1849 -1.13135 1.62715
rclavicle -3.37934e-015 1.59028e-015
rhumerus -86.5502 -74.969 57.1638
rradius 12.1388
rwrist 92.9633
rhand -5.27445 0.346677
rfingers 7.12502
rthumb 20.5297 -28.5878
lclavicle -3.37934e-015 1.59028e-015
lhumerus -69.6935 -15.9243 55.5509
lradius 11.6422
lwrist -64.9318
lhand 3.46296 31.4645
lfingers 7.12502
lthumb 28.9029 59.2449
rfemur -19.5584 10.5267 387.81
rtibia 46.2218
rfoot -40.9748 -25.2977
rtoes -8.21897
lfemur -74.8756 1.32814 -15.8951
ltibia 65.8049
lfoot -19.5123 15.1464
ltoes -13.5012
658
root 0.323397 15.2998 -14.6877 -159.369 -1.77746 -173.009
lowerback -4.53629 6.20311 6.62168
upperback -4.78493 7.82042 -4.09725
thorax -0.990074 3.61421 -7.5951
lowerneck -25.063 -0.573706 -3.61098
upperneck 33.9283 -1.99778 3.20931
head 16.493 -1.31334 1.46759
rclavicle -1.66979e-014 -2.46493e-014
rhumerus -83.6751 -74.4541 55.3366
rradius 12.2237
rwrist 93.5289
rhand -5.39799 0.536493
rfingers 7.12502
rthumb 20.411 -28.4108
lclavicle -1.66979e-014 -2.46493e-014
lhumerus -71.6733 -15.865 55.0379
lradius 11.3354
lwrist -64.8426
lhand 4.56282 31.8337
lfingers 7.12502
lthumb 29.9529 59.4294
rfemur -18.5026 10.9152 388.454
rtibia 43.8244
rfoot -38.5877 -26.2197
rtoes -12.7296
lfemur -76.497 2.73745 -15.2292
ltibia 62.5809
lfoot -16.6446 14.5985
ltoes -13.8777
659
root 0.262341 15.3475 -14.9825 -159.278 -1.5888 -172.288
lowerback -5.70437 6.78779 6.77328
upperback -4.90475 8.50171 -4.15908
thorax -0.318292 3.96475 -7.55057
lowerneck -25.2325 -0.818247 -3.72923
upperneck 34.3907 -2.59506 3.7222
head 16.8114 -1.51622 1.58993
rclavicle -9.48203e-014 -3.49861e-014
rhumerus -86.9821 -74.3296 59.9212
rradius 12.4409
rwrist 95.1297
rhand -5.5203 0.559364
rfingers 7.12502
rthumb 20.2934 -28.4004
lclavicle -9.48203e-014 -3.49861e-014
lhumerus -73.0969 -15.409 54.11
lradius 10.9862
lwrist -64.8731
lhand 5.6965 30.7689
lfingers 7.12502
lthumb 31.0341 58.1639
rfemur -16.3591 11.0968 388.956
rtibia 41.6013
rfoot -37.7351 -25.0267
rtoes -11.4454
lfemur -76.7117 3.60692 -14.7536
ltibia 59.5015
lfoot -14.2202 14.5306
ltoes -12.6887
660
root 0.221859 15.3861 -15.2835 -159.164 -0.808931 -171.642
lowerback -6.96834 7.09667 6.30471
upperback -5.11184 9.52225 -4.14894
thorax 0.238726 4.80369 -7.02846
lowerneck -24.8587 -1.20375 -4.05794
upperneck 34.3892 -3.31199 4.30149
head 16.7849 -1.77987 1.74942
rclavicle 1.63003e-014 2.8625e-014
rhumerus -88.8892 -74.0315 63.1533
rradius 12.7056
rwrist 96.0455
rhand -5.61172 0.367072
rfingers 7.12502
rthumb 20.2056 -28.6021
lclavicle 1.63003e-014 2.8625e-014
lhumerus -74.8453 -15.4425 54.3244
lradius 10.6872
lwrist -63.4414
lhand 6.34554 29.5249
lfingers 7.12502
lthumb 31.6525 56.7999
rfemur -14.2569 12.1997 389.412
rtibia 39.4939
rfoot -36.2949 -24.8799
rtoes -12.4345
lfemur -76.7889 5.02509 -14.4185
ltibia 56.8406
lfoot -12.7142 14.509
ltoes -6.24893
661
root 0.142346 15.4313 -15.5603 -158.653 -0.359863 -171.94
lowerback -8.52163 7.52405 5.37502
upperback -5.44427 10.16 -4.45697
thorax 0.748373 5.18111 -6.57349
lowerneck -24.2853 -1.53186 -4.2836
upperneck 34.423 -4.03272 4.87891
head 16.7362 -2.04685 1.88845
rclavicle -2.54444e-014 6.83819e-014
rhumerus -92.3536 -73.8006 68.1192
rradius 12.9169
rwrist 97.6312
rhand -5.84015 0.481703
rfingers 7.12502
rthumb 19.986 -28.5105
lclavicle -2.54444e-014 6.83819e-014
lhumerus -77.0909 -15.7239 55.7988
lradius 10.5041
lwrist -60.904
lhand 7.04705 28.7304
lfingers 7.12502
lthumb 32.3205 55.8716
rfemur -12.8759 11.692 388.546
rtibia 37.7402
rfoot -34.491 -23.9956
rtoes -15.2612
lfemur -77.2575 5.85316 -15.4855
ltibia 54.3334
lfoot -11.7689 15.3796
ltoes 0.216839
